# xmcd
#
# Track frame offsets:
#	150
#	14550
#	34900
#	51107
#	63095
#	92602
#	108265
#	118325
#	132252
#	146865
#
# Disc length: 2168
#
# Revision: 5
# Processed by: cddbd v1.5.1PL0 Copyright (c) Steve Scherf et al.
# Submitted via: EasyCDDAExtractor 6.5.7.1
# Normalized: r4:DSETVAR1
#
DISCID=8d08760a
DTITLE=Various Artist - NASCAR  Runnin' Wide Open
DYEAR=1995
DGENRE=Country
TTITLE0=T. Graham Brown - Dedicated NASCAR Fans
TTITLE1=Billy Ray Cyrus - The Fastest Horse In A One Horse Town
TTITLE2=Colin Brown - The Wall
TTITLE3=Ken Mellons - Fuel To The Fire
TTITLE4=Jeff Foxworthy - You Could Be  A NASAR Fan If...
TTITLE5=Ricky Van Shelton - Junk Cars
TTITLE6=Sammy Kershaw - Racing With My Heart
TTITLE7=Joe Diffie - Runnin' Wide Open
TTITLE8=Rick Trevino - Cadillac Ranch
TTITLE9=Kyle Petty - Oh King Richard
EXTD=
EXTT0=
EXTT1=
EXTT2=
EXTT3=
EXTT4=
EXTT5=
EXTT6=
EXTT7=
EXTT8=
EXTT9=
PLAYORDER=
